<mxfile host="app.diagrams.net" agent="Mozilla/5.0 (Windows NT 10.0; Win64; x64) AppleWebKit/537.36 (KHTML, like Gecko) Chrome/128.0.0.0 YaBrowser/24.10.0.0 Safari/537.36" version="24.9.0">
  <diagram name="Страница — 1" id="2IqhaNbt14pxCkikMI_0">
    <mxGraphModel dx="2031" dy="1201" grid="1" gridSize="10" guides="1" tooltips="1" connect="1" arrows="1" fold="1" page="1" pageScale="1" pageWidth="827" pageHeight="1169" math="0" shadow="0">
      <root>
        <mxCell id="0" />
        <mxCell id="1" parent="0" />
        <mxCell id="-IXVYf6TS_zuRTswWciG-1" value="Person" style="swimlane;fontStyle=1;align=center;verticalAlign=top;childLayout=stackLayout;horizontal=1;startSize=26;horizontalStack=0;resizeParent=1;resizeParentMax=0;resizeLast=0;collapsible=1;marginBottom=0;whiteSpace=wrap;html=1;labelBackgroundColor=none;" vertex="1" parent="1">
          <mxGeometry x="360" y="430" width="210" height="246" as="geometry" />
        </mxCell>
        <mxCell id="-IXVYf6TS_zuRTswWciG-2" value="-id:integer=nil&lt;div&gt;-git:integer=nil&lt;br&gt;&lt;/div&gt;" style="text;strokeColor=none;fillColor=none;align=left;verticalAlign=top;spacingLeft=4;spacingRight=4;overflow=hidden;rotatable=0;points=[[0,0.5],[1,0.5]];portConstraint=eastwest;whiteSpace=wrap;html=1;labelBackgroundColor=none;" vertex="1" parent="-IXVYf6TS_zuRTswWciG-1">
          <mxGeometry y="26" width="210" height="44" as="geometry" />
        </mxCell>
        <mxCell id="-IXVYf6TS_zuRTswWciG-3" value="" style="line;strokeWidth=1;fillColor=none;align=left;verticalAlign=middle;spacingTop=-1;spacingLeft=3;spacingRight=3;rotatable=0;labelPosition=right;points=[];portConstraint=eastwest;labelBackgroundColor=none;" vertex="1" parent="-IXVYf6TS_zuRTswWciG-1">
          <mxGeometry y="70" width="210" height="8" as="geometry" />
        </mxCell>
        <mxCell id="-IXVYf6TS_zuRTswWciG-4" value="+has_git?:boolean&lt;div&gt;+&lt;u&gt;phone_number_valid?(str)&lt;span style=&quot;background-color: initial;&quot;&gt;:boolean&lt;/span&gt;&lt;/u&gt;&lt;/div&gt;&lt;div&gt;&lt;span style=&quot;background-color: initial;&quot;&gt;+&lt;u&gt;name_valid?(str)&lt;/u&gt;&lt;/span&gt;&lt;span style=&quot;background-color: initial;&quot;&gt;&lt;u&gt;:boolean&lt;/u&gt;&lt;/span&gt;&lt;/div&gt;&lt;div&gt;&lt;span style=&quot;background-color: initial;&quot;&gt;+&lt;u&gt;id_valid?&lt;/u&gt;&lt;/span&gt;&lt;u&gt;&lt;span style=&quot;background-color: initial;&quot;&gt;(str)&lt;/span&gt;&lt;span style=&quot;background-color: initial;&quot;&gt;:boolean&lt;/span&gt;&lt;/u&gt;&lt;/div&gt;&lt;div&gt;&lt;span style=&quot;background-color: initial;&quot;&gt;+&lt;u&gt;telegram_valid?&lt;/u&gt;&lt;/span&gt;&lt;u&gt;&lt;span style=&quot;background-color: initial;&quot;&gt;(str)&lt;/span&gt;&lt;span style=&quot;background-color: initial;&quot;&gt;:boolean&lt;/span&gt;&lt;/u&gt;&lt;/div&gt;&lt;div&gt;&lt;span style=&quot;background-color: initial;&quot;&gt;+&lt;u&gt;email_valid?&lt;/u&gt;&lt;/span&gt;&lt;u&gt;&lt;span style=&quot;background-color: initial;&quot;&gt;(str)&lt;/span&gt;&lt;span style=&quot;background-color: initial;&quot;&gt;:boolean&lt;/span&gt;&lt;/u&gt;&lt;/div&gt;&lt;div&gt;&lt;span style=&quot;background-color: initial;&quot;&gt;+&lt;u&gt;git_valid?&lt;/u&gt;&lt;/span&gt;&lt;u&gt;&lt;span style=&quot;background-color: initial;&quot;&gt;(str)&lt;/span&gt;&lt;span style=&quot;background-color: initial;&quot;&gt;:boolean&lt;/span&gt;&lt;/u&gt;&lt;/div&gt;&lt;div&gt;&lt;span style=&quot;background-color: initial;&quot;&gt;+validate&lt;/span&gt;&lt;span style=&quot;background-color: initial;&quot;&gt;:boolean&lt;/span&gt;&lt;/div&gt;&lt;div&gt;&lt;span style=&quot;background-color: initial;&quot;&gt;+has_contacts?:&lt;/span&gt;&lt;span style=&quot;background-color: initial;&quot;&gt;boolean&lt;/span&gt;&lt;/div&gt;&lt;div&gt;&lt;span style=&quot;background-color: initial;&quot;&gt;+initials:string&lt;/span&gt;&lt;/div&gt;&lt;div&gt;&lt;span style=&quot;background-color: initial;&quot;&gt;+contact:string&lt;/span&gt;&lt;/div&gt;" style="text;strokeColor=none;fillColor=none;align=left;verticalAlign=top;spacingLeft=4;spacingRight=4;overflow=hidden;rotatable=0;points=[[0,0.5],[1,0.5]];portConstraint=eastwest;whiteSpace=wrap;html=1;labelBackgroundColor=none;" vertex="1" parent="-IXVYf6TS_zuRTswWciG-1">
          <mxGeometry y="78" width="210" height="168" as="geometry" />
        </mxCell>
        <mxCell id="-IXVYf6TS_zuRTswWciG-24" style="edgeStyle=orthogonalEdgeStyle;rounded=0;orthogonalLoop=1;jettySize=auto;html=1;exitX=0.5;exitY=0;exitDx=0;exitDy=0;fontSize=12;startSize=8;endSize=8;endArrow=block;endFill=0;" edge="1" parent="1" source="-IXVYf6TS_zuRTswWciG-6" target="-IXVYf6TS_zuRTswWciG-4">
          <mxGeometry relative="1" as="geometry">
            <Array as="points">
              <mxPoint x="309" y="720" />
              <mxPoint x="465" y="720" />
            </Array>
          </mxGeometry>
        </mxCell>
        <mxCell id="-IXVYf6TS_zuRTswWciG-6" value="Student" style="swimlane;fontStyle=1;align=center;verticalAlign=top;childLayout=stackLayout;horizontal=1;startSize=26;horizontalStack=0;resizeParent=1;resizeParentMax=0;resizeLast=0;collapsible=1;marginBottom=0;whiteSpace=wrap;html=1;labelBackgroundColor=none;" vertex="1" parent="1">
          <mxGeometry x="204" y="770" width="210" height="310" as="geometry" />
        </mxCell>
        <mxCell id="-IXVYf6TS_zuRTswWciG-7" value="&lt;div&gt;-first_name:string&lt;/div&gt;&lt;div&gt;-surname&lt;span style=&quot;background-color: initial;&quot;&gt;:string&lt;/span&gt;&lt;/div&gt;&lt;div&gt;&lt;span style=&quot;background-color: initial;&quot;&gt;-last_name&lt;/span&gt;&lt;span style=&quot;background-color: initial;&quot;&gt;:string&lt;/span&gt;&lt;/div&gt;&lt;div&gt;&lt;span style=&quot;background-color: initial;&quot;&gt;-phone_number:string=nil&lt;/span&gt;&lt;/div&gt;&lt;div&gt;&lt;span style=&quot;background-color: initial;&quot;&gt;-telegram&lt;/span&gt;&lt;span style=&quot;background-color: initial;&quot;&gt;:string=nil&lt;/span&gt;&lt;/div&gt;&lt;div&gt;&lt;span style=&quot;background-color: initial;&quot;&gt;-email&lt;/span&gt;&lt;span style=&quot;background-color: initial;&quot;&gt;:string=nil&lt;/span&gt;&lt;/div&gt;&lt;div&gt;&lt;span style=&quot;background-color: initial;&quot;&gt;-birthdate:date=nil&lt;/span&gt;&lt;/div&gt;" style="text;strokeColor=none;fillColor=none;align=left;verticalAlign=top;spacingLeft=4;spacingRight=4;overflow=hidden;rotatable=0;points=[[0,0.5],[1,0.5]];portConstraint=eastwest;whiteSpace=wrap;html=1;labelBackgroundColor=none;" vertex="1" parent="-IXVYf6TS_zuRTswWciG-6">
          <mxGeometry y="26" width="210" height="114" as="geometry" />
        </mxCell>
        <mxCell id="-IXVYf6TS_zuRTswWciG-8" value="" style="line;strokeWidth=1;fillColor=none;align=left;verticalAlign=middle;spacingTop=-1;spacingLeft=3;spacingRight=3;rotatable=0;labelPosition=right;points=[];portConstraint=eastwest;labelBackgroundColor=none;" vertex="1" parent="-IXVYf6TS_zuRTswWciG-6">
          <mxGeometry y="140" width="210" height="8" as="geometry" />
        </mxCell>
        <mxCell id="-IXVYf6TS_zuRTswWciG-9" value="-set_contacts(Hash)&lt;div&gt;+to_s:string&lt;/div&gt;&lt;div&gt;+&amp;lt;=&amp;gt;(Student):int&lt;/div&gt;&lt;div&gt;+get_info:string&lt;/div&gt;&lt;div&gt;+first_name=&lt;/div&gt;&lt;div&gt;+surname=&lt;/div&gt;&lt;div&gt;+last_name=&lt;/div&gt;&lt;div&gt;+id=&lt;/div&gt;&lt;div&gt;+git=&lt;/div&gt;&lt;div&gt;+birthdate=&lt;/div&gt;" style="text;strokeColor=none;fillColor=none;align=left;verticalAlign=top;spacingLeft=4;spacingRight=4;overflow=hidden;rotatable=0;points=[[0,0.5],[1,0.5]];portConstraint=eastwest;whiteSpace=wrap;html=1;labelBackgroundColor=none;" vertex="1" parent="-IXVYf6TS_zuRTswWciG-6">
          <mxGeometry y="148" width="210" height="162" as="geometry" />
        </mxCell>
        <mxCell id="-IXVYf6TS_zuRTswWciG-25" style="edgeStyle=orthogonalEdgeStyle;rounded=0;orthogonalLoop=1;jettySize=auto;html=1;fontSize=12;startSize=8;endSize=8;exitX=0.5;exitY=0;exitDx=0;exitDy=0;endArrow=block;endFill=0;" edge="1" parent="1" source="-IXVYf6TS_zuRTswWciG-10" target="-IXVYf6TS_zuRTswWciG-4">
          <mxGeometry relative="1" as="geometry">
            <Array as="points">
              <mxPoint x="610" y="720" />
              <mxPoint x="465" y="720" />
            </Array>
          </mxGeometry>
        </mxCell>
        <mxCell id="-IXVYf6TS_zuRTswWciG-10" value="Student_short" style="swimlane;fontStyle=1;align=center;verticalAlign=top;childLayout=stackLayout;horizontal=1;startSize=26;horizontalStack=0;resizeParent=1;resizeParentMax=0;resizeLast=0;collapsible=1;marginBottom=0;whiteSpace=wrap;html=1;labelBackgroundColor=none;" vertex="1" parent="1">
          <mxGeometry x="490" y="770" width="240" height="140" as="geometry" />
        </mxCell>
        <mxCell id="-IXVYf6TS_zuRTswWciG-11" value="&lt;div&gt;-initials:string&lt;/div&gt;&lt;div&gt;-contact:string&lt;/div&gt;" style="text;strokeColor=none;fillColor=none;align=left;verticalAlign=top;spacingLeft=4;spacingRight=4;overflow=hidden;rotatable=0;points=[[0,0.5],[1,0.5]];portConstraint=eastwest;whiteSpace=wrap;html=1;labelBackgroundColor=none;" vertex="1" parent="-IXVYf6TS_zuRTswWciG-10">
          <mxGeometry y="26" width="240" height="44" as="geometry" />
        </mxCell>
        <mxCell id="-IXVYf6TS_zuRTswWciG-12" value="" style="line;strokeWidth=1;fillColor=none;align=left;verticalAlign=middle;spacingTop=-1;spacingLeft=3;spacingRight=3;rotatable=0;labelPosition=right;points=[];portConstraint=eastwest;labelBackgroundColor=none;" vertex="1" parent="-IXVYf6TS_zuRTswWciG-10">
          <mxGeometry y="70" width="240" height="8" as="geometry" />
        </mxCell>
        <mxCell id="-IXVYf6TS_zuRTswWciG-13" value="+to_s:string&lt;div&gt;+&lt;u&gt;from_student(Student):Student_short&lt;/u&gt;&lt;/div&gt;&lt;div&gt;+&lt;u&gt;from_string(integer, string)&lt;span style=&quot;background-color: initial;&quot;&gt;:Student_short&lt;/span&gt;&lt;/u&gt;&lt;/div&gt;" style="text;strokeColor=none;fillColor=none;align=left;verticalAlign=top;spacingLeft=4;spacingRight=4;overflow=hidden;rotatable=0;points=[[0,0.5],[1,0.5]];portConstraint=eastwest;whiteSpace=wrap;html=1;labelBackgroundColor=none;" vertex="1" parent="-IXVYf6TS_zuRTswWciG-10">
          <mxGeometry y="78" width="240" height="62" as="geometry" />
        </mxCell>
        <mxCell id="-IXVYf6TS_zuRTswWciG-26" value="Data_table" style="swimlane;fontStyle=1;align=center;verticalAlign=top;childLayout=stackLayout;horizontal=1;startSize=26;horizontalStack=0;resizeParent=1;resizeParentMax=0;resizeLast=0;collapsible=1;marginBottom=0;whiteSpace=wrap;html=1;" vertex="1" parent="1">
          <mxGeometry x="80" y="1180.0000000000002" width="210" height="130" as="geometry" />
        </mxCell>
        <mxCell id="-IXVYf6TS_zuRTswWciG-27" value="&lt;div&gt;-data:object[][]&lt;/div&gt;" style="text;strokeColor=none;fillColor=none;align=left;verticalAlign=top;spacingLeft=4;spacingRight=4;overflow=hidden;rotatable=0;points=[[0,0.5],[1,0.5]];portConstraint=eastwest;whiteSpace=wrap;html=1;" vertex="1" parent="-IXVYf6TS_zuRTswWciG-26">
          <mxGeometry y="26" width="210" height="24" as="geometry" />
        </mxCell>
        <mxCell id="-IXVYf6TS_zuRTswWciG-28" value="" style="line;strokeWidth=1;fillColor=none;align=left;verticalAlign=middle;spacingTop=-1;spacingLeft=3;spacingRight=3;rotatable=0;labelPosition=right;points=[];portConstraint=eastwest;strokeColor=inherit;" vertex="1" parent="-IXVYf6TS_zuRTswWciG-26">
          <mxGeometry y="50" width="210" height="8" as="geometry" />
        </mxCell>
        <mxCell id="-IXVYf6TS_zuRTswWciG-29" value="+row_count:int&lt;div&gt;+column_count:int&lt;/div&gt;&lt;div&gt;+get(int, int):object&lt;/div&gt;&lt;div&gt;-data=&lt;/div&gt;&lt;div&gt;&lt;br&gt;&lt;/div&gt;" style="text;strokeColor=none;fillColor=none;align=left;verticalAlign=top;spacingLeft=4;spacingRight=4;overflow=hidden;rotatable=0;points=[[0,0.5],[1,0.5]];portConstraint=eastwest;whiteSpace=wrap;html=1;" vertex="1" parent="-IXVYf6TS_zuRTswWciG-26">
          <mxGeometry y="58" width="210" height="72" as="geometry" />
        </mxCell>
        <mxCell id="-IXVYf6TS_zuRTswWciG-30" value="Data_list" style="swimlane;fontStyle=1;align=center;verticalAlign=top;childLayout=stackLayout;horizontal=1;startSize=26;horizontalStack=0;resizeParent=1;resizeParentMax=0;resizeLast=0;collapsible=1;marginBottom=0;whiteSpace=wrap;html=1;" vertex="1" parent="1">
          <mxGeometry x="410" y="1150.0000000000002" width="210" height="190" as="geometry" />
        </mxCell>
        <mxCell id="-IXVYf6TS_zuRTswWciG-31" value="&lt;div&gt;-data:Object[]&lt;/div&gt;&lt;div&gt;-selected:int[]=[]&lt;/div&gt;&lt;div&gt;-index:int=1&lt;/div&gt;" style="text;strokeColor=none;fillColor=none;align=left;verticalAlign=top;spacingLeft=4;spacingRight=4;overflow=hidden;rotatable=0;points=[[0,0.5],[1,0.5]];portConstraint=eastwest;whiteSpace=wrap;html=1;" vertex="1" parent="-IXVYf6TS_zuRTswWciG-30">
          <mxGeometry y="26" width="210" height="54" as="geometry" />
        </mxCell>
        <mxCell id="-IXVYf6TS_zuRTswWciG-32" value="" style="line;strokeWidth=1;fillColor=none;align=left;verticalAlign=middle;spacingTop=-1;spacingLeft=3;spacingRight=3;rotatable=0;labelPosition=right;points=[];portConstraint=eastwest;strokeColor=inherit;" vertex="1" parent="-IXVYf6TS_zuRTswWciG-30">
          <mxGeometry y="80" width="210" height="8" as="geometry" />
        </mxCell>
        <mxCell id="-IXVYf6TS_zuRTswWciG-33" value="+select(int)&lt;div&gt;+get_selected:int[]&lt;/div&gt;&lt;div&gt;+get_names(abstract)&lt;/div&gt;&lt;div&gt;+get_data:Data_table&lt;/div&gt;&lt;div&gt;-list=&lt;/div&gt;&lt;div&gt;-build_row(int, object)(abstract)&lt;/div&gt;" style="text;strokeColor=none;fillColor=none;align=left;verticalAlign=top;spacingLeft=4;spacingRight=4;overflow=hidden;rotatable=0;points=[[0,0.5],[1,0.5]];portConstraint=eastwest;whiteSpace=wrap;html=1;" vertex="1" parent="-IXVYf6TS_zuRTswWciG-30">
          <mxGeometry y="88" width="210" height="102" as="geometry" />
        </mxCell>
        <mxCell id="-IXVYf6TS_zuRTswWciG-34" value="Data_list_student_short" style="swimlane;fontStyle=1;align=center;verticalAlign=top;childLayout=stackLayout;horizontal=1;startSize=26;horizontalStack=0;resizeParent=1;resizeParentMax=0;resizeLast=0;collapsible=1;marginBottom=0;whiteSpace=wrap;html=1;" vertex="1" parent="1">
          <mxGeometry x="710" y="1140.0000000000002" width="210" height="190" as="geometry" />
        </mxCell>
        <mxCell id="-IXVYf6TS_zuRTswWciG-35" value="&lt;div&gt;-data:Object[]&lt;/div&gt;&lt;div&gt;-selected:int[]=[]&lt;/div&gt;&lt;div&gt;-index:int=1&lt;/div&gt;" style="text;strokeColor=none;fillColor=none;align=left;verticalAlign=top;spacingLeft=4;spacingRight=4;overflow=hidden;rotatable=0;points=[[0,0.5],[1,0.5]];portConstraint=eastwest;whiteSpace=wrap;html=1;" vertex="1" parent="-IXVYf6TS_zuRTswWciG-34">
          <mxGeometry y="26" width="210" height="54" as="geometry" />
        </mxCell>
        <mxCell id="-IXVYf6TS_zuRTswWciG-36" value="" style="line;strokeWidth=1;fillColor=none;align=left;verticalAlign=middle;spacingTop=-1;spacingLeft=3;spacingRight=3;rotatable=0;labelPosition=right;points=[];portConstraint=eastwest;strokeColor=inherit;" vertex="1" parent="-IXVYf6TS_zuRTswWciG-34">
          <mxGeometry y="80" width="210" height="8" as="geometry" />
        </mxCell>
        <mxCell id="-IXVYf6TS_zuRTswWciG-37" value="+get_names&lt;div&gt;+build_row(int, object)&lt;/div&gt;" style="text;strokeColor=none;fillColor=none;align=left;verticalAlign=top;spacingLeft=4;spacingRight=4;overflow=hidden;rotatable=0;points=[[0,0.5],[1,0.5]];portConstraint=eastwest;whiteSpace=wrap;html=1;" vertex="1" parent="-IXVYf6TS_zuRTswWciG-34">
          <mxGeometry y="88" width="210" height="102" as="geometry" />
        </mxCell>
        <mxCell id="-IXVYf6TS_zuRTswWciG-38" value="Use" style="endArrow=open;endSize=12;dashed=1;html=1;rounded=0;fontSize=12;edgeStyle=orthogonalEdgeStyle;" edge="1" parent="1" source="-IXVYf6TS_zuRTswWciG-30" target="-IXVYf6TS_zuRTswWciG-26">
          <mxGeometry width="160" relative="1" as="geometry">
            <mxPoint x="220" y="1340" as="sourcePoint" />
            <mxPoint x="380" y="1340" as="targetPoint" />
          </mxGeometry>
        </mxCell>
        <mxCell id="-IXVYf6TS_zuRTswWciG-39" style="edgeStyle=orthogonalEdgeStyle;rounded=0;orthogonalLoop=1;jettySize=auto;html=1;fontSize=12;startSize=8;endSize=8;endArrow=block;endFill=0;" edge="1" parent="1" source="-IXVYf6TS_zuRTswWciG-34" target="-IXVYf6TS_zuRTswWciG-30">
          <mxGeometry relative="1" as="geometry">
            <mxPoint x="775" y="1344" as="sourcePoint" />
            <mxPoint x="560" y="1400" as="targetPoint" />
            <Array as="points">
              <mxPoint x="660" y="1230" />
              <mxPoint x="660" y="1230" />
            </Array>
          </mxGeometry>
        </mxCell>
        <mxCell id="-IXVYf6TS_zuRTswWciG-40" value="Use" style="endArrow=open;endSize=12;dashed=1;html=1;rounded=0;fontSize=12;edgeStyle=orthogonalEdgeStyle;" edge="1" parent="1" source="-IXVYf6TS_zuRTswWciG-34" target="-IXVYf6TS_zuRTswWciG-10">
          <mxGeometry width="160" relative="1" as="geometry">
            <mxPoint x="840" y="1070" as="sourcePoint" />
            <mxPoint x="720" y="1070" as="targetPoint" />
          </mxGeometry>
        </mxCell>
      </root>
    </mxGraphModel>
  </diagram>
</mxfile>
